  0
SECTION
  2
BLOCKS
  0
ENDSEC
  0
SECTION
  2
ENTITIES
  0
LINE
  8
0
 10
178.272
 20
0.708069
 11
179.542
 21
2.14111
  0
LINE
  8
0
 10
179.542
 20
2.14111
 11
180
 21
4
  0
LINE
  8
0
 10
180
 20
4
 11
180
 21
176
  0
LINE
  8
0
 10
180
 20
176
 11
179.542
 21
177.859
  0
LINE
  8
0
 10
179.542
 20
177.859
 11
178.272
 21
179.292
  0
LINE
  8
0
 10
178.272
 20
179.292
 11
176.482
 21
179.971
  0
LINE
  8
0
 10
176.482
 20
179.971
 11
4.48213
 21
179.971
  0
LINE
  8
0
 10
4.48213
 20
179.971
 11
2.58159
 21
179.74
  0
LINE
  8
0
 10
2.58159
 20
179.74
 11
1.00597
 21
178.652
  0
LINE
  8
0
 10
1.00597
 20
178.652
 11
0.116241
 21
176.957
  0
LINE
  8
0
 10
0.116241
 20
176.957
 11
0.116241
 21
3.04274
  0
LINE
  8
0
 10
0.116241
 20
3.04274
 11
1.00597
 21
1.34752
  0
LINE
  8
0
 10
1.00597
 20
1.34752
 11
2.58159
 21
0.259949
  0
LINE
  8
0
 10
2.58159
 20
0.259949
 11
4.48213
 21
0.0291748
  0
LINE
  8
0
 10
4.48213
 20
0.0291748
 11
176.482
 21
0.0291748
  0
LINE
  8
0
 10
176.482
 20
0.0291748
 11
178.272
 21
0.708069
  0
LINE
  8
0
 10
173.198
 20
174.132
 11
173.198
 21
175.868
  0
LINE
  8
0
 10
173.198
 20
175.868
 11
174.555
 21
176.95
  0
LINE
  8
0
 10
174.555
 20
176.95
 11
176.247
 21
176.564
  0
LINE
  8
0
 10
176.247
 20
176.564
 11
177
 21
175
  0
LINE
  8
0
 10
177
 20
175
 11
176.247
 21
173.436
  0
LINE
  8
0
 10
176.247
 20
173.436
 11
174.555
 21
173.05
  0
LINE
  8
0
 10
174.555
 20
173.05
 11
173.198
 21
174.132
  0
LINE
  8
0
 10
3.19806
 20
174.132
 11
3.19806
 21
175.868
  0
LINE
  8
0
 10
3.19806
 20
175.868
 11
4.55495
 21
176.95
  0
LINE
  8
0
 10
4.55495
 20
176.95
 11
6.24698
 21
176.564
  0
LINE
  8
0
 10
6.24698
 20
176.564
 11
7
 21
175
  0
LINE
  8
0
 10
7
 20
175
 11
6.24698
 21
173.436
  0
LINE
  8
0
 10
6.24698
 20
173.436
 11
4.55495
 21
173.05
  0
LINE
  8
0
 10
4.55495
 20
173.05
 11
3.19806
 21
174.132
  0
LINE
  8
0
 10
3.19806
 20
4.13222
 11
3.19806
 21
5.86777
  0
LINE
  8
0
 10
3.19806
 20
5.86777
 11
4.55495
 21
6.94984
  0
LINE
  8
0
 10
4.55495
 20
6.94984
 11
6.24698
 21
6.56366
  0
LINE
  8
0
 10
6.24698
 20
6.56366
 11
7
 21
5
  0
LINE
  8
0
 10
7
 20
5
 11
6.24698
 21
3.43633
  0
LINE
  8
0
 10
6.24698
 20
3.43633
 11
4.55495
 21
3.05014
  0
LINE
  8
0
 10
4.55495
 20
3.05014
 11
3.19806
 21
4.13222
  0
LINE
  8
0
 10
173.198
 20
4.13222
 11
173.198
 21
5.86777
  0
LINE
  8
0
 10
173.198
 20
5.86777
 11
174.555
 21
6.94984
  0
LINE
  8
0
 10
174.555
 20
6.94984
 11
176.247
 21
6.56366
  0
LINE
  8
0
 10
176.247
 20
6.56366
 11
177
 21
5
  0
LINE
  8
0
 10
177
 20
5
 11
176.247
 21
3.43633
  0
LINE
  8
0
 10
176.247
 20
3.43633
 11
174.555
 21
3.05014
  0
LINE
  8
0
 10
174.555
 20
3.05014
 11
173.198
 21
4.13222
  0
LINE
  8
0
 10
359.272
 20
0.708069
 11
360.542
 21
2.14111
  0
LINE
  8
0
 10
360.542
 20
2.14111
 11
361
 21
4
  0
LINE
  8
0
 10
361
 20
4
 11
361
 21
176
  0
LINE
  8
0
 10
361
 20
176
 11
360.542
 21
177.859
  0
LINE
  8
0
 10
360.542
 20
177.859
 11
359.272
 21
179.292
  0
LINE
  8
0
 10
359.272
 20
179.292
 11
357.482
 21
179.971
  0
LINE
  8
0
 10
357.482
 20
179.971
 11
185.482
 21
179.971
  0
LINE
  8
0
 10
185.482
 20
179.971
 11
183.582
 21
179.74
  0
LINE
  8
0
 10
183.582
 20
179.74
 11
182.006
 21
178.652
  0
LINE
  8
0
 10
182.006
 20
178.652
 11
181.116
 21
176.957
  0
LINE
  8
0
 10
181.116
 20
176.957
 11
181.116
 21
3.04274
  0
LINE
  8
0
 10
181.116
 20
3.04274
 11
182.006
 21
1.34752
  0
LINE
  8
0
 10
182.006
 20
1.34752
 11
183.582
 21
0.259949
  0
LINE
  8
0
 10
183.582
 20
0.259949
 11
185.482
 21
0.0291748
  0
LINE
  8
0
 10
185.482
 20
0.0291748
 11
357.482
 21
0.0291748
  0
LINE
  8
0
 10
357.482
 20
0.0291748
 11
359.272
 21
0.708069
  0
LINE
  8
0
 10
354.198
 20
174.132
 11
354.198
 21
175.868
  0
LINE
  8
0
 10
354.198
 20
175.868
 11
355.555
 21
176.95
  0
LINE
  8
0
 10
355.555
 20
176.95
 11
357.247
 21
176.564
  0
LINE
  8
0
 10
357.247
 20
176.564
 11
358
 21
175
  0
LINE
  8
0
 10
358
 20
175
 11
357.247
 21
173.436
  0
LINE
  8
0
 10
357.247
 20
173.436
 11
355.555
 21
173.05
  0
LINE
  8
0
 10
355.555
 20
173.05
 11
354.198
 21
174.132
  0
LINE
  8
0
 10
184.198
 20
174.132
 11
184.198
 21
175.868
  0
LINE
  8
0
 10
184.198
 20
175.868
 11
185.555
 21
176.95
  0
LINE
  8
0
 10
185.555
 20
176.95
 11
187.247
 21
176.564
  0
LINE
  8
0
 10
187.247
 20
176.564
 11
188
 21
175
  0
LINE
  8
0
 10
188
 20
175
 11
187.247
 21
173.436
  0
LINE
  8
0
 10
187.247
 20
173.436
 11
185.555
 21
173.05
  0
LINE
  8
0
 10
185.555
 20
173.05
 11
184.198
 21
174.132
  0
LINE
  8
0
 10
191
 20
5
 11
190.619
 21
6.91341
  0
LINE
  8
0
 10
190.619
 20
6.91341
 11
189.536
 21
8.53552
  0
LINE
  8
0
 10
189.536
 20
8.53552
 11
187.913
 21
9.61938
  0
LINE
  8
0
 10
187.913
 20
9.61938
 11
186
 21
10
  0
LINE
  8
0
 10
186
 20
10
 11
186
 21
20
  0
LINE
  8
0
 10
186
 20
20
 11
191
 21
20
  0
LINE
  8
0
 10
191
 20
20
 11
191
 21
13.6602
  0
LINE
  8
0
 10
191
 20
13.6602
 11
192.691
 21
12.4314
  0
LINE
  8
0
 10
192.691
 20
12.4314
 11
194.09
 21
10.8778
  0
LINE
  8
0
 10
194.09
 20
10.8778
 11
195.135
 21
9.06735
  0
LINE
  8
0
 10
195.135
 20
9.06735
 11
195.781
 21
7.07912
  0
LINE
  8
0
 10
195.781
 20
7.07912
 11
196
 21
5
  0
LINE
  8
0
 10
196
 20
5
 11
191
 21
5
  0
LINE
  8
0
 10
346
 20
5
 11
346.219
 21
7.07912
  0
LINE
  8
0
 10
346.219
 20
7.07912
 11
346.865
 21
9.06735
  0
LINE
  8
0
 10
346.865
 20
9.06735
 11
347.91
 21
10.8778
  0
LINE
  8
0
 10
347.91
 20
10.8778
 11
349.309
 21
12.4314
  0
LINE
  8
0
 10
349.309
 20
12.4314
 11
351
 21
13.6602
  0
LINE
  8
0
 10
351
 20
13.6602
 11
351
 21
20
  0
LINE
  8
0
 10
351
 20
20
 11
356
 21
20
  0
LINE
  8
0
 10
356
 20
20
 11
356
 21
10
  0
LINE
  8
0
 10
356
 20
10
 11
354.087
 21
9.61938
  0
LINE
  8
0
 10
354.087
 20
9.61938
 11
352.464
 21
8.53552
  0
LINE
  8
0
 10
352.464
 20
8.53552
 11
351.381
 21
6.91341
  0
LINE
  8
0
 10
351.381
 20
6.91341
 11
351
 21
5
  0
LINE
  8
0
 10
351
 20
5
 11
346
 21
5
  0
LINE
  8
0
 10
184.198
 20
4.13222
 11
184.198
 21
5.86777
  0
LINE
  8
0
 10
184.198
 20
5.86777
 11
185.555
 21
6.94984
  0
LINE
  8
0
 10
185.555
 20
6.94984
 11
187.247
 21
6.56366
  0
LINE
  8
0
 10
187.247
 20
6.56366
 11
188
 21
5
  0
LINE
  8
0
 10
188
 20
5
 11
187.247
 21
3.43633
  0
LINE
  8
0
 10
187.247
 20
3.43633
 11
185.555
 21
3.05014
  0
LINE
  8
0
 10
185.555
 20
3.05014
 11
184.198
 21
4.13222
  0
LINE
  8
0
 10
354.198
 20
4.13222
 11
354.198
 21
5.86777
  0
LINE
  8
0
 10
354.198
 20
5.86777
 11
355.555
 21
6.94984
  0
LINE
  8
0
 10
355.555
 20
6.94984
 11
357.247
 21
6.56366
  0
LINE
  8
0
 10
357.247
 20
6.56366
 11
358
 21
5
  0
LINE
  8
0
 10
358
 20
5
 11
357.247
 21
3.43633
  0
LINE
  8
0
 10
357.247
 20
3.43633
 11
355.555
 21
3.05014
  0
LINE
  8
0
 10
355.555
 20
3.05014
 11
354.198
 21
4.13222
  0
ENDSEC
  0
SECTION
  2
OBJECTS
  0
DICTIONARY
  0
ENDSEC
  0
EOF
