  0
SECTION
  2
BLOCKS
  0
ENDSEC
  0
SECTION
  2
ENTITIES
  0
LINE
  8
0
 10
178.272
 20
0.708069
 11
179.542
 21
2.14111
  0
LINE
  8
0
 10
179.542
 20
2.14111
 11
180
 21
4
  0
LINE
  8
0
 10
180
 20
4
 11
180
 21
176
  0
LINE
  8
0
 10
180
 20
176
 11
179.542
 21
177.859
  0
LINE
  8
0
 10
179.542
 20
177.859
 11
178.272
 21
179.292
  0
LINE
  8
0
 10
178.272
 20
179.292
 11
176.482
 21
179.971
  0
LINE
  8
0
 10
176.482
 20
179.971
 11
4.48213
 21
179.971
  0
LINE
  8
0
 10
4.48213
 20
179.971
 11
2.58159
 21
179.74
  0
LINE
  8
0
 10
2.58159
 20
179.74
 11
1.00597
 21
178.652
  0
LINE
  8
0
 10
1.00597
 20
178.652
 11
0.116241
 21
176.957
  0
LINE
  8
0
 10
0.116241
 20
176.957
 11
0.116241
 21
3.04274
  0
LINE
  8
0
 10
0.116241
 20
3.04274
 11
1.00597
 21
1.34752
  0
LINE
  8
0
 10
1.00597
 20
1.34752
 11
2.58159
 21
0.259949
  0
LINE
  8
0
 10
2.58159
 20
0.259949
 11
4.48213
 21
0.0291748
  0
LINE
  8
0
 10
4.48213
 20
0.0291748
 11
176.482
 21
0.0291748
  0
LINE
  8
0
 10
176.482
 20
0.0291748
 11
178.272
 21
0.708069
  0
LINE
  8
0
 10
173.198
 20
174.132
 11
173.198
 21
175.868
  0
LINE
  8
0
 10
173.198
 20
175.868
 11
174.555
 21
176.95
  0
LINE
  8
0
 10
174.555
 20
176.95
 11
176.247
 21
176.564
  0
LINE
  8
0
 10
176.247
 20
176.564
 11
177
 21
175
  0
LINE
  8
0
 10
177
 20
175
 11
176.247
 21
173.436
  0
LINE
  8
0
 10
176.247
 20
173.436
 11
174.555
 21
173.05
  0
LINE
  8
0
 10
174.555
 20
173.05
 11
173.198
 21
174.132
  0
LINE
  8
0
 10
3.19806
 20
174.132
 11
3.19806
 21
175.868
  0
LINE
  8
0
 10
3.19806
 20
175.868
 11
4.55495
 21
176.95
  0
LINE
  8
0
 10
4.55495
 20
176.95
 11
6.24698
 21
176.564
  0
LINE
  8
0
 10
6.24698
 20
176.564
 11
7
 21
175
  0
LINE
  8
0
 10
7
 20
175
 11
6.24698
 21
173.436
  0
LINE
  8
0
 10
6.24698
 20
173.436
 11
4.55495
 21
173.05
  0
LINE
  8
0
 10
4.55495
 20
173.05
 11
3.19806
 21
174.132
  0
LINE
  8
0
 10
3.19806
 20
4.13222
 11
3.19806
 21
5.86777
  0
LINE
  8
0
 10
3.19806
 20
5.86777
 11
4.55495
 21
6.94984
  0
LINE
  8
0
 10
4.55495
 20
6.94984
 11
6.24698
 21
6.56366
  0
LINE
  8
0
 10
6.24698
 20
6.56366
 11
7
 21
5
  0
LINE
  8
0
 10
7
 20
5
 11
6.24698
 21
3.43633
  0
LINE
  8
0
 10
6.24698
 20
3.43633
 11
4.55495
 21
3.05014
  0
LINE
  8
0
 10
4.55495
 20
3.05014
 11
3.19806
 21
4.13222
  0
LINE
  8
0
 10
173.198
 20
4.13222
 11
173.198
 21
5.86777
  0
LINE
  8
0
 10
173.198
 20
5.86777
 11
174.555
 21
6.94984
  0
LINE
  8
0
 10
174.555
 20
6.94984
 11
176.247
 21
6.56366
  0
LINE
  8
0
 10
176.247
 20
6.56366
 11
177
 21
5
  0
LINE
  8
0
 10
177
 20
5
 11
176.247
 21
3.43633
  0
LINE
  8
0
 10
176.247
 20
3.43633
 11
174.555
 21
3.05014
  0
LINE
  8
0
 10
174.555
 20
3.05014
 11
173.198
 21
4.13222
  0
ENDSEC
  0
SECTION
  2
OBJECTS
  0
DICTIONARY
  0
ENDSEC
  0
EOF
